<svg id="visual" viewBox="0 0 900 100" width="900" height="100" xmlns="http://www.w3.org/2000/svg" xmlns:xlink="http://www.w3.org/1999/xlink" version="1.1"><path d="M0 52L11.5 53.7C23 55.3 46 58.7 69 59C92 59.3 115 56.7 138.2 53.3C161.3 50 184.7 46 207.8 43.8C231 41.7 254 41.3 277 42.8C300 44.3 323 47.7 346 49.3C369 51 392 51 415.2 49.3C438.3 47.7 461.7 44.3 484.8 43C508 41.7 531 42.3 554 44C577 45.7 600 48.3 623 49.5C646 50.7 669 50.3 692.2 51.5C715.3 52.7 738.7 55.3 761.8 58.2C785 61 808 64 831 64.2C854 64.3 877 61.7 888.5 60.3L900 59L900 0L888.5 0C877 0 854 0 831 0C808 0 785 0 761.8 0C738.7 0 715.3 0 692.2 0C669 0 646 0 623 0C600 0 577 0 554 0C531 0 508 0 484.8 0C461.7 0 438.3 0 415.2 0C392 0 369 0 346 0C323 0 300 0 277 0C254 0 231 0 207.8 0C184.7 0 161.3 0 138.2 0C115 0 92 0 69 0C46 0 23 0 11.5 0L0 0Z" fill="#ebe7df"></path><path d="M0 32L11.5 35.8C23 39.7 46 47.3 69 49.2C92 51 115 47 138.2 46C161.3 45 184.7 47 207.8 49.3C231 51.7 254 54.3 277 52.8C300 51.3 323 45.7 346 42.2C369 38.7 392 37.3 415.2 39.3C438.3 41.3 461.7 46.7 484.8 49C508 51.3 531 50.7 554 49C577 47.3 600 44.7 623 42.3C646 40 669 38 692.2 39.8C715.3 41.7 738.7 47.3 761.8 50.5C785 53.7 808 54.3 831 52.5C854 50.7 877 46.3 888.5 44.2L900 42L900 0L888.5 0C877 0 854 0 831 0C808 0 785 0 761.8 0C738.7 0 715.3 0 692.2 0C669 0 646 0 623 0C600 0 577 0 554 0C531 0 508 0 484.8 0C461.7 0 438.3 0 415.2 0C392 0 369 0 346 0C323 0 300 0 277 0C254 0 231 0 207.8 0C184.7 0 161.3 0 138.2 0C115 0 92 0 69 0C46 0 23 0 11.5 0L0 0Z" fill="#e3ded3"></path><path d="M0 27L11.5 29.7C23 32.3 46 37.7 69 39.2C92 40.7 115 38.3 138.2 36.8C161.3 35.3 184.7 34.7 207.8 35.2C231 35.7 254 37.3 277 39C300 40.7 323 42.3 346 42.7C369 43 392 42 415.2 41.3C438.3 40.7 461.7 40.3 484.8 39C508 37.7 531 35.3 554 35.3C577 35.3 600 37.7 623 37.2C646 36.7 669 33.3 692.2 30.7C715.3 28 738.7 26 761.8 25.5C785 25 808 26 831 26.2C854 26.3 877 25.7 888.5 25.3L900 25L900 0L888.5 0C877 0 854 0 831 0C808 0 785 0 761.8 0C738.7 0 715.3 0 692.2 0C669 0 646 0 623 0C600 0 577 0 554 0C531 0 508 0 484.8 0C461.7 0 438.3 0 415.2 0C392 0 369 0 346 0C323 0 300 0 277 0C254 0 231 0 207.8 0C184.7 0 161.3 0 138.2 0C115 0 92 0 69 0C46 0 23 0 11.5 0L0 0Z" fill="#dcd5c7"></path><path d="M0 21L11.5 19.8C23 18.7 46 16.3 69 15.2C92 14 115 14 138.2 16.3C161.3 18.7 184.7 23.3 207.8 25.2C231 27 254 26 277 26.7C300 27.3 323 29.7 346 29.3C369 29 392 26 415.2 23.2C438.3 20.3 461.7 17.7 484.8 17.5C508 17.3 531 19.7 554 21.8C577 24 600 26 623 27.7C646 29.3 669 30.7 692.2 28.5C715.3 26.3 738.7 20.7 761.8 18.2C785 15.7 808 16.3 831 17.5C854 18.7 877 20.3 888.5 21.2L900 22L900 0L888.5 0C877 0 854 0 831 0C808 0 785 0 761.8 0C738.7 0 715.3 0 692.2 0C669 0 646 0 623 0C600 0 577 0 554 0C531 0 508 0 484.8 0C461.7 0 438.3 0 415.2 0C392 0 369 0 346 0C323 0 300 0 277 0C254 0 231 0 207.8 0C184.7 0 161.3 0 138.2 0C115 0 92 0 69 0C46 0 23 0 11.5 0L0 0Z" fill="#d4ccbb"></path><path d="M0 17L11.5 16.5C23 16 46 15 69 14.8C92 14.7 115 15.3 138.2 13.8C161.3 12.3 184.7 8.7 207.8 8.3C231 8 254 11 277 13.2C300 15.3 323 16.7 346 15.8C369 15 392 12 415.2 10.8C438.3 9.7 461.7 10.3 484.8 11.5C508 12.7 531 14.3 554 13.8C577 13.3 600 10.7 623 11.2C646 11.7 669 15.3 692.2 15.3C715.3 15.3 738.7 11.7 761.8 9.3C785 7 808 6 831 5.5C854 5 877 5 888.5 5L900 5L900 0L888.5 0C877 0 854 0 831 0C808 0 785 0 761.8 0C738.7 0 715.3 0 692.2 0C669 0 646 0 623 0C600 0 577 0 554 0C531 0 508 0 484.8 0C461.7 0 438.3 0 415.2 0C392 0 369 0 346 0C323 0 300 0 277 0C254 0 231 0 207.8 0C184.7 0 161.3 0 138.2 0C115 0 92 0 69 0C46 0 23 0 11.5 0L0 0Z" fill="#cdc3b0"></path></svg>