<svg id="visual" viewBox="0 0 900 100" width="900" height="100" xmlns="http://www.w3.org/2000/svg" xmlns:xlink="http://www.w3.org/1999/xlink" version="1.1"><path d="M0 35L11.5 34.5C23 34 46 33 69 35.3C92 37.7 115 43.3 138.2 45.5C161.3 47.7 184.7 46.3 207.8 43.7C231 41 254 37 277 37C300 37 323 41 346 43C369 45 392 45 415.2 43C438.3 41 461.7 37 484.8 38.7C508 40.3 531 47.7 554 51.5C577 55.3 600 55.7 623 53.2C646 50.7 669 45.3 692.2 42.2C715.3 39 738.7 38 761.8 40C785 42 808 47 831 48.7C854 50.3 877 48.7 888.5 47.8L900 47L900 101L888.5 101C877 101 854 101 831 101C808 101 785 101 761.8 101C738.7 101 715.3 101 692.2 101C669 101 646 101 623 101C600 101 577 101 554 101C531 101 508 101 484.8 101C461.7 101 438.3 101 415.2 101C392 101 369 101 346 101C323 101 300 101 277 101C254 101 231 101 207.8 101C184.7 101 161.3 101 138.2 101C115 101 92 101 69 101C46 101 23 101 11.5 101L0 101Z" fill="#978674"></path><path d="M0 65L11.5 63.7C23 62.3 46 59.7 69 56C92 52.3 115 47.7 138.2 49C161.3 50.3 184.7 57.7 207.8 60.5C231 63.3 254 61.7 277 61C300 60.3 323 60.7 346 61.7C369 62.7 392 64.3 415.2 64.7C438.3 65 461.7 64 484.8 61.7C508 59.3 531 55.7 554 53.3C577 51 600 50 623 50C646 50 669 51 692.2 51.5C715.3 52 738.7 52 761.8 51.7C785 51.3 808 50.7 831 51C854 51.3 877 52.7 888.5 53.3L900 54L900 101L888.5 101C877 101 854 101 831 101C808 101 785 101 761.8 101C738.7 101 715.3 101 692.2 101C669 101 646 101 623 101C600 101 577 101 554 101C531 101 508 101 484.8 101C461.7 101 438.3 101 415.2 101C392 101 369 101 346 101C323 101 300 101 277 101C254 101 231 101 207.8 101C184.7 101 161.3 101 138.2 101C115 101 92 101 69 101C46 101 23 101 11.5 101L0 101Z" fill="#a49582"></path><path d="M0 55L11.5 57C23 59 46 63 69 64C92 65 115 63 138.2 63.3C161.3 63.7 184.7 66.3 207.8 66.3C231 66.3 254 63.7 277 61.2C300 58.7 323 56.3 346 57.3C369 58.3 392 62.7 415.2 65C438.3 67.3 461.7 67.7 484.8 65.8C508 64 531 60 554 57.7C577 55.3 600 54.7 623 55.3C646 56 669 58 692.2 61.5C715.3 65 738.7 70 761.8 70.2C785 70.3 808 65.7 831 65.3C854 65 877 69 888.5 71L900 73L900 101L888.5 101C877 101 854 101 831 101C808 101 785 101 761.8 101C738.7 101 715.3 101 692.2 101C669 101 646 101 623 101C600 101 577 101 554 101C531 101 508 101 484.8 101C461.7 101 438.3 101 415.2 101C392 101 369 101 346 101C323 101 300 101 277 101C254 101 231 101 207.8 101C184.7 101 161.3 101 138.2 101C115 101 92 101 69 101C46 101 23 101 11.5 101L0 101Z" fill="#b2a491"></path><path d="M0 66L11.5 66C23 66 46 66 69 68.2C92 70.3 115 74.7 138.2 75.5C161.3 76.3 184.7 73.7 207.8 73.8C231 74 254 77 277 76C300 75 323 70 346 69.7C369 69.3 392 73.7 415.2 76C438.3 78.3 461.7 78.7 484.8 79.3C508 80 531 81 554 79.5C577 78 600 74 623 71.8C646 69.7 669 69.3 692.2 69.5C715.3 69.7 738.7 70.3 761.8 69.8C785 69.3 808 67.7 831 68.8C854 70 877 74 888.5 76L900 78L900 101L888.5 101C877 101 854 101 831 101C808 101 785 101 761.8 101C738.7 101 715.3 101 692.2 101C669 101 646 101 623 101C600 101 577 101 554 101C531 101 508 101 484.8 101C461.7 101 438.3 101 415.2 101C392 101 369 101 346 101C323 101 300 101 277 101C254 101 231 101 207.8 101C184.7 101 161.3 101 138.2 101C115 101 92 101 69 101C46 101 23 101 11.5 101L0 101Z" fill="#bfb3a0"></path><path d="M0 91L11.5 90.7C23 90.3 46 89.7 69 87.5C92 85.3 115 81.7 138.2 81.2C161.3 80.7 184.7 83.3 207.8 85.7C231 88 254 90 277 89.3C300 88.7 323 85.3 346 84.2C369 83 392 84 415.2 85.3C438.3 86.7 461.7 88.3 484.8 88C508 87.7 531 85.3 554 84.7C577 84 600 85 623 84.3C646 83.7 669 81.3 692.2 80.3C715.3 79.3 738.7 79.7 761.8 80.8C785 82 808 84 831 84C854 84 877 82 888.5 81L900 80L900 101L888.5 101C877 101 854 101 831 101C808 101 785 101 761.8 101C738.7 101 715.3 101 692.2 101C669 101 646 101 623 101C600 101 577 101 554 101C531 101 508 101 484.8 101C461.7 101 438.3 101 415.2 101C392 101 369 101 346 101C323 101 300 101 277 101C254 101 231 101 207.8 101C184.7 101 161.3 101 138.2 101C115 101 92 101 69 101C46 101 23 101 11.5 101L0 101Z" fill="#cdc3b0"></path></svg>