<svg id="visual" viewBox="0 0 900 100" width="900" height="100" xmlns="http://www.w3.org/2000/svg" xmlns:xlink="http://www.w3.org/1999/xlink" version="1.1"><path d="M0 30L12.5 30.3C25 30.7 50 31.3 75 33.5C100 35.7 125 39.3 150 39.5C175 39.7 200 36.3 225 40.5C250 44.7 275 56.3 300 59.7C325 63 350 58 375 51.7C400 45.3 425 37.7 450 33.7C475 29.7 500 29.3 525 29.7C550 30 575 31 600 32.7C625 34.3 650 36.7 675 36.5C700 36.3 725 33.7 750 33.5C775 33.3 800 35.7 825 36.2C850 36.7 875 35.3 887.5 34.7L900 34L900 101L887.5 101C875 101 850 101 825 101C800 101 775 101 750 101C725 101 700 101 675 101C650 101 625 101 600 101C575 101 550 101 525 101C500 101 475 101 450 101C425 101 400 101 375 101C350 101 325 101 300 101C275 101 250 101 225 101C200 101 175 101 150 101C125 101 100 101 75 101C50 101 25 101 12.5 101L0 101Z" fill="#978674" stroke-linecap="round" stroke-linejoin="miter"></path></svg>